<?xml version="1.0" encoding="UTF-8"?>
<svg width="1280px" height="644px" viewBox="0 0 1280 644" version="1.1" xmlns="http://www.w3.org/2000/svg" xmlns:xlink="http://www.w3.org/1999/xlink">
    <!-- Generator: Sketch 48.1 (47250) - http://www.bohemiancoding.com/sketch -->
    <title>SVG</title>
    <desc>Created with Sketch.</desc>
    <defs></defs>
    <g id="Page-1" stroke="none" stroke-width="1" fill="none" fill-rule="evenodd">
        <g id="SVG">
            <path d="M-4,140.258567 C73.7050274,90.7329687 155.705027,64.756724 242,62.3298334 C309.226659,60.4392047 391.119115,66.8408839 488,77.3161284 C535.901611,82.4954895 595.482444,87.6922642 643,95.2996824 C971.666667,147.918229 1184.33333,181.554136 1281,196.207402 L1281,415.007309 L-4,426 L-4,140.258567 Z" id="Path-2" fill="#6368AF"></path>
            <path d="M1281,150 C1120.08268,76.3411385 915.096724,57.8110508 666.042122,94.409737 C653.81376,96.2067003 628.988647,98.2390642 617.967239,99.4004669 C589.883673,102.359828 564.746468,105.215844 534.837754,108.383781 C446.389677,117.752219 352.670221,127.882197 273.430577,136.331868 C208.349269,143.271774 116.205744,153.918665 -3,168.27254 L-3,322 L1231.92356,282.061182 L1281,287 L1281,150 Z" id="Path-4" fill-opacity="0.745697464" fill="#717FF4"></path>
            <path d="M-4,166.840121 C133.333333,129.450478 293,119.769231 475,137.79638 C657,155.823529 920.666667,175.519859 1266,196.88537 L-4,273 L-4,166.840121 Z" id="Path-3" fill="#464D81"></path>
            <path d="M-4,173.899778 C504.685657,138.387126 840.01899,126.0872 1002,137 C1115.41417,144.64081 1207.21585,154.186033 1280.61496,175 C1284.88289,176.210269 1284.88289,332.543603 1280.61496,644 L-4,644 L-4,173.899778 Z" id="Path-5" fill="#2D2B4E"></path>
        </g>
    </g>
</svg>