<svg fill="#262626" xmlns="http://www.w3.org/2000/svg" xmlns:xlink="http://www.w3.org/1999/xlink" version="1.1" x="0px" y="0px" viewBox="0 0 65 65" enable-background="new 0 0 65 65" xml:space="preserve"><g><path d="M65.3,25.3h-5.1v-4h-4.9v4h-4.1V8c0-1.5-0.6-2.9-1.6-3.9c-1-1-2.4-1.6-3.9-1.6H15.8V0h-5.2v2.4h-8v5.1   C1,7.9-0.3,9.3-0.3,11.1c0,1.7,1.2,3.2,2.9,3.5v3.7C1,18.6-0.3,20-0.3,21.8c0,1.7,1.2,3.2,2.9,3.5V29c-1.6,0.3-2.9,1.8-2.9,3.5   c0,1.7,1.2,3.2,2.9,3.5v3.7C1,40-0.3,41.5-0.3,43.2c0,1.7,1.2,3.2,2.9,3.5v3.7C1,50.8-0.3,52.2-0.3,54c0,1.7,1.2,3.2,2.9,3.5v5.1h8   V65h5.2v-2.4h29.8c1.5,0,2.9-0.6,3.9-1.6c1.1-1.1,1.6-2.4,1.6-3.9v-2.8h14.1V25.3z M56.7,22.8h1.9v4.5h-1.9V22.8z M1.2,11.1   c0-0.9,0.6-1.7,1.4-2V13C1.8,12.7,1.2,12,1.2,11.1z M1.2,21.8c0-0.9,0.6-1.7,1.4-2v3.9C1.8,23.4,1.2,22.7,1.2,21.8z M1.2,32.5   c0-0.9,0.6-1.7,1.4-2v3.9C1.8,34.2,1.2,33.4,1.2,32.5z M1.2,43.2c0-0.9,0.6-1.7,1.4-2v3.9C1.8,44.9,1.2,44.1,1.2,43.2z M1.2,54   c0-0.9,0.6-1.7,1.4-2v3.9C1.8,55.6,1.2,54.9,1.2,54z M4.1,61.1V52c0.8,0.3,1.4,1.1,1.4,2H7c0-1.7-1.2-3.2-2.9-3.5v-9.2   c0.8,0.3,1.4,1.1,1.4,2H7c0-1.7-1.2-3.2-2.9-3.5v-9.2c0.8,0.3,1.4,1.1,1.4,2H7c0-1.7-1.2-3.2-2.9-3.5v-9.2c0.8,0.3,1.4,1.1,1.4,2H7   c0-1.7-1.2-3.2-2.9-3.5V9.1c0.8,0.3,1.4,1.1,1.4,2H7c0-1.7-1.2-3.2-2.9-3.5V3.9h6.5v57.2H4.1z M14.3,63.5h-2.2v-0.9V2.4V1.5h2.2   v0.9v60.2V63.5z M49.7,57c0,1.1-0.4,2.1-1.2,2.9c-0.8,0.8-1.8,1.2-2.9,1.2H15.8V3.9h29.8c1.1,0,2.1,0.4,2.9,1.2   c0.8,0.8,1.2,1.8,1.2,2.9v17.3H33.5v-4h-4.9v4h-5.1v29h26.2V57z M32,22.8v4.5h-1.9v-4.5H32z M63.8,52.8H25v-26h3.6v2h4.9v-2h21.8v2   h4.9v-2h3.6V52.8z"></path><path d="M27.2,39.4h9.7v-8.6h-9.7V39.4z M28.7,32.3h6.7v5.6h-6.7V32.3z"></path><path d="M39.5,39.4h9.7v-8.6h-9.7V39.4z M41,32.3h6.7v5.6H41V32.3z"></path><path d="M51.8,39.4h9.7v-8.6h-9.7V39.4z M53.3,32.3H60v5.6h-6.7V32.3z"></path><path d="M27.2,50.6h9.7V42h-9.7V50.6z M28.7,43.5h6.7v5.6h-6.7V43.5z"></path><path d="M39.5,50.6h9.7V42h-9.7V50.6z M41,43.5h6.7v5.6H41V43.5z"></path><path d="M51.8,50.6h9.7V42h-9.7V50.6z M53.3,43.5H60v5.6h-6.7V43.5z"></path><rect x="19.3" y="8.7" width="25.9" height="1.5"></rect><rect x="19.3" y="13.1" width="21.6" height="1.5"></rect></g></svg>