<svg fill="#262626" xmlns="http://www.w3.org/2000/svg" xmlns:xlink="http://www.w3.org/1999/xlink" version="1.1" x="0px" y="0px" viewBox="0, 0, 90, 89.901"><g transform="translate(-5, -5)"><path d="M52.049,5 L52.049,7.198 L69.978,7.197 C70.417,5.782 71.629,5.141 73.025,5 C74.845,5 76.321,6.476 76.321,8.296 C76.321,10.117 74.845,11.593 73.025,11.593 C71.27,11.483 70.54,10.73 69.895,9.198 L61.803,9.198 C75.587,13.31 86.455,24.432 90.704,38.098 L90.703,30.063 C89.24,29.62 88.554,28.428 88.407,26.975 C88.407,25.155 89.883,23.679 91.704,23.679 L91.703,23.679 C93.524,23.679 95,25.155 95,26.975 C94.897,28.649 94.185,29.44 92.704,30.063 L92.703,47.951 L94.901,47.951 L94.901,54.346 L92.703,54.346 L92.703,72.233 C94.167,72.676 94.854,73.868 95,75.321 C95,77.141 93.524,78.617 91.704,78.617 C89.883,78.617 88.407,77.141 88.407,75.321 C88.51,73.647 89.222,72.856 90.704,72.233 L90.703,64.001 C85.368,81.904 68.411,94.408 49.852,94.876 L49.852,94.901 L5,94.901 L5,50.049 L5.025,50.049 C5.288,31.355 18.176,14.707 35.9,9.198 L27.808,9.198 C27.359,10.708 26.189,11.44 24.679,11.593 C22.859,11.593 21.383,10.117 21.383,8.296 C21.456,6.37 22.843,5.185 24.679,5 L25.231,5.058 C26.512,5.263 27.147,6.144 27.725,7.198 L45.654,7.198 L45.654,5 L52.049,5 z M7,64.001 L7,64.001 L7,92.901 L35.9,92.901 C22.116,88.789 11.249,77.667 7,64.001 z M85.479,30.884 C86.147,34.161 85.954,32.565 86.111,35.667 C86.111,47.749 76.317,57.543 64.235,57.543 C59.091,57.379 53.593,55.822 49.852,52.081 L49.852,92.876 C71.45,92.517 87.947,75.186 90.455,54.346 L88.506,54.346 L88.506,47.951 L90.57,47.951 C90.226,41.891 88.194,36.246 85.479,30.884 z M47.852,52.049 L7.025,52.049 C7.314,74.13 25.974,92.324 47.852,92.876 L47.852,52.049 z M64.234,15.79 L64.234,15.79 C53.257,15.79 44.358,24.689 44.358,35.667 C44.358,46.644 53.257,55.543 64.235,55.543 C75.212,55.543 84.111,46.644 84.111,35.667 C84.111,24.689 75.212,15.79 64.235,15.79 z M92.901,52.346 L92.901,49.951 L90.506,49.951 L90.506,52.346 L92.901,52.346 z M45.654,9.372 C24.287,11.148 8.097,28.914 7.025,50.049 L47.82,50.049 C44.04,46.232 42.62,40.863 42.358,35.667 C42.358,23.585 52.152,13.79 64.235,13.79 C67.336,13.947 65.74,13.754 69.017,14.422 C63.645,11.18 58.149,10.166 52.049,9.397 L52.049,11.395 L45.654,11.395 L45.654,9.372 z M50.049,7 L47.654,7 L47.654,9.395 L50.049,9.395 L50.049,7 z" fill="#262626"></path></g></svg>